<svg id="Layer_1" data-name="Layer 1" xmlns="http://www.w3.org/2000/svg" viewBox="0 0 1920 1080"><defs><style>.cls-1{fill:#666;}.cls-2,.cls-3,.cls-4{fill:none;}.cls-2,.cls-3,.cls-4,.cls-5{stroke:#666;stroke-width:12px;}.cls-2,.cls-4{stroke-linecap:round;}.cls-3,.cls-4,.cls-5{stroke-miterlimit:10;}</style></defs><title>Missing Image Place Holder</title><g id="Clean_Colour" data-name="Clean Colour"><g id="Colour"><path class="cls-1" d="M788.81,613c5.55-.09,9.6-4.07,9.48-11.55s-5.35-14-13.72-13.85c-7.11.12-10.92,5.29-10.8,12.44a36,36,0,0,0,1.73,10.27l-1.48,0c-2,0-3.26-.81-3.91-3a36.32,36.32,0,0,1-1-8.14c-.15-9.15,5.52-17.4,15-17.56,9.75-.16,18.56,7.85,18.76,20.3.17,9.77-5.7,16.83-13.81,17-7.06.11-12-4.72-12.15-11a4.45,4.45,0,0,1,3.22-4.54,7.1,7.1,0,0,1-3.52-5.9c-.06-3.53,3.26-7.07,7.69-7.14,6-.1,11,4.73,11.16,11.59,0,3.2-1.92,7.33-4,7.37a24.68,24.68,0,0,1-4.13-.55,25.29,25.29,0,0,0-4.13-.6,1.25,1.25,0,0,0-1.32,1.16C781.88,610.54,783.65,613,788.81,613Zm-3.9-15.77c-2.47,0-2.71,1.19-2.71,1.67,0,2.53,2.31,3.35,7.44,4.17a3.3,3.3,0,0,0,.45-1.87C790.06,599.34,788.12,597.13,784.91,597.18Z"/><path class="cls-1" d="M780.22,661.27l-.7-2.38a4.64,4.64,0,0,1,1-4.52,49.14,49.14,0,0,1,10.69-9,52.92,52.92,0,0,1-16.43-2.51l-.7-2.38a4.87,4.87,0,0,1,1-4.62A67.37,67.37,0,0,1,799,618l1.49,5c.75,2.56,0,4.86-2.35,6.11A58,58,0,0,0,786.4,637a83.6,83.6,0,0,0,17.28.51l.89,3c.91,3.06.38,5.71-2.64,7.44a54.1,54.1,0,0,0-10.11,7.42,70.24,70.24,0,0,0,18.22,0l1.3,4.39c.66,2.24-.23,4.29-2.39,4.93a6.82,6.82,0,0,1-1.33.24C800.26,665.3,788,663.94,780.22,661.27Z"/><path class="cls-1" d="M800.51,699.09c-2.48-4.07-1.16-5.82,1.36-7.36l6.81-4.14c2.89-1.76,3.49-3.69,2.15-5.89-1.83-3-3.72-2.87-6.61-1.11l-10.93,6.65-1.58-2.61c-2.26-3.71-1.72-6,1.13-7.73L816,662.82l1.51,2.48c2,3.22,1.67,5.91-1,7.51l-5.26,3.2c2.32.15,4.69,1.28,6.84,4.83,2.76,4.52,2,10.41-3.54,13.77l-12.26,7.46Z"/><path class="cls-1" d="M822.53,712l-2.64-2.89c-1.41,2-.8,4.34,1.74,7.13,2.83,3.1,5,4.63,6.71,5.11l.23.25-1.41,1.28c-2.25,2-6.1,1.88-11.14-3.66-6.1-6.7-5.21-14-.34-18.4,5.35-4.88,13.34-4.87,18.8,1.13,4.62,5.07,5.63,11.39,1.14,15.48C832.09,720.6,828.5,718.52,822.53,712Zm7.4-5.91c-2.15-2.36-4.43-2.09-6.29-.72l2.38,2.61c2.89,3.17,3.85,3.33,4.62,2.63S831.69,708,829.93,706.05Z"/><path class="cls-1" d="M845.48,732.92l-3.12-2.37c-1,2.22,0,4.41,3,6.7,3.34,2.54,5.8,3.64,7.53,3.81l.26.2L852,742.78c-1.84,2.42-5.66,3-11.62-1.59-7.21-5.48-7.65-12.79-3.66-18,4.38-5.77,12.24-7.2,18.7-2.29,5.47,4.16,7.59,10.19,3.92,15C856.45,739.69,852.54,738.29,845.48,732.92Zm6.21-7.15c-2.54-1.93-4.73-1.26-6.31.43l2.81,2.13c3.41,2.6,4.39,2.58,5,1.75S853.78,727.36,851.69,725.77Z"/><path class="cls-1" d="M864.22,756c-4.22-2.33-6.59-6.62-3.86-11.55l11.71-21.17,2.8,1.55c3.46,1.92,4.34,4.29,2.38,7.81l-8.37,15.14c-1,1.86-.22,3.05,2,4.27l1.75,1-1.38,2.51C869.83,758.06,866.72,757.38,864.22,756Z"/><path class="cls-1" d="M889,757l-3.66-1.38c-.35,2.42,1.26,4.23,4.78,5.56,3.93,1.49,6.6,1.85,8.3,1.52l.32.12-.68,1.78c-1.07,2.84-4.58,4.43-11.58,1.79-8.48-3.21-11-10.09-8.65-16.25,2.56-6.77,9.68-10.38,17.27-7.52,6.42,2.43,10.18,7.6,8,13.28C901.47,760.35,897.32,760.13,889,757Zm3.92-8.62c-3-1.13-4.9.14-5.93,2.21l3.3,1.25c4,1.51,4.94,1.22,5.31.24C896.05,750.94,895.39,749.3,892.94,748.37Z"/><path class="cls-1" d="M918.17,775c-7.62-1.33-12.5-8-11.38-14.4,1.38-7.9,7.59-11.88,14.45-10.68,3.29.58,5.5,2.33,6.12,4.33l1.85-10.59,3.19.56c3.57.62,5.2,2.66,4.51,6.64l-2.38,13.62C933,773,928.45,776.79,918.17,775Zm3.05-18.61c-2.39-.42-4.81,1.49-5.44,5.08-.8,4.61,1.22,6.9,4.46,7.47,2.77.48,4.57-1.23,5.21-4.9C926.37,758.78,924.42,756.94,921.22,756.38Z"/><path class="cls-1" d="M967.26,776.83c-3.72.09-6.81-1.31-9.89-6.09l-5.81-9a11.77,11.77,0,0,1-1.68-2.43l.45,18-3.72.09c-2.48.07-5.14-1.43-5.22-4.46l-.63-25.32,4.39-.11c4.81-.12,8.06,1.92,10.4,5.9L961.93,764l-.43-17,4-.1c2.14-.05,4.61,1.32,4.67,3.75l.65,26Z"/><path class="cls-1" d="M987.43,748.79c7-1.51,14.34,2,15.89,9.17,1.64,7.63-2.38,13.65-11.24,15.56-7.32,1.58-14.35-2-15.83-8.92C974.59,756.88,979.37,750.53,987.43,748.79Zm.82,6.48c-2.43.52-4.12,3.33-3.43,6.51,1,4.49,3.35,6,6.47,5.34,2.8-.6,4.11-3.32,3.42-6.54C993.8,756.38,991.32,754.61,988.25,755.27Z"/><path class="cls-1" d="M1048.9,751.36c-4.34,2.08-6.14.87-7.41-1.79l-3.8-7.94c-1.33-2.78-2.85-3.3-5.21-2.17s-2.33,3-1.3,5.14l5.93,12.4-2.84,1.36c-3.31,1.58-5.54,1.45-7.15-1.91l-3.89-8.14c-1.22-2.55-2.8-3.09-5-2.06s-2.68,2.58-1.41,5.24l5.91,12.37-2.84,1.35c-3.65,1.75-6.1.95-7.41-1.79l-3.61-7.55c-3-6.26-.94-12.14,6.59-15.74,3.7-1.77,7.49-1,9.1.35a10.64,10.64,0,0,1,5.57-7.37c6.89-3.3,12.75-1.53,16,5.19l5.59,11.7Z"/><path class="cls-1" d="M1067.9,737.88c-3.93,3.18-10.07,5.36-13.48,1.15s-1.76-8.84,5.66-14.84l1-.81-.63-.78c-1.22-1.52-2.82-.84-5.6,1.41-3.82,3.09-4.58,5-5,7.43l-.18.15-1.83-2.26c-1.86-2.29-1.08-6.72,4.74-11.43,5.64-4.56,11.41-4.93,15.83.53l2.31,2.87C1076.14,728,1075.32,731.88,1067.9,737.88Zm-3.45-10.65-1.41,1.15c-2.67,2.15-3.26,3.63-2.25,4.88s2.26,1.12,4.23-.47c1.26-1,1.91-2.49.54-4.17Z"/><path class="cls-1" d="M1092.32,714c-4.94,6-13.18,6.85-18.15,2.72-6.17-5.12-6.53-12.49-2.09-17.85,2.14-2.57,4.76-3.62,6.8-3.16l-8.27-6.87,2.07-2.5c2.32-2.79,4.9-3.19,8-.61l10.64,8.84C1098,700.13,1099,706,1092.32,714Zm-14.63-11.9c-1.56,1.87-1.1,4.91,1.7,7.24,3.61,3,6.6,2.38,8.7-.15,1.8-2.17,1.21-4.58-1.66-7C1082.33,698.86,1079.76,699.64,1077.69,702.14Z"/><g id="device"><path id="backpack" class="cls-2" d="M828.23,531.48c-7.33-7-12.89-16.81-12.17-22.83,4.59-13.73,25.37-50.26,51.15-79.89,17.12-18.15,72.07-21.4,56.61.7"/><path id="backpack-2" data-name="backpack" class="cls-2" d="M923.82,429.46,895.41,471"/><path id="legs" class="cls-3" d="M1066.17,545.13C1073,556,1077.28,570.68,1078,583c0-.15,6.19,0,8.53,0h4.26l11.43,39.7c6.29,21.83,12.1,41,12.93,42.64,2,3.94,6.43,7.31,11.68,8.88,10.7,3.21,23.17-6.29,23.17-17.65,0-5.77-27.31-99.8-30.13-103.77-4.52-6.33-7.18-7-31.49-7.36Z"/><path class="cls-4" d="M1004.45,508.94a106.57,106.57,0,0,1,53.19,105c-6.87,58.47-60,100.27-118.7,93.37S838.26,647.44,845.13,589a108.16,108.16,0,0,1,49.72-78.88"/><path class="cls-4" d="M904.42,482.07c-47.28,18.56-80.77,65.5-80.77,119.37a127.24,127.24,0,1,0,179.5-116"/><circle id="hub" class="cls-5" cx="950.89" cy="598.1" r="8.88"/><path id="body" class="cls-3" d="M976.45,399.57a30.82,30.82,0,0,0-7.31,4.61c-3,3.1-53.63,86.63-55.93,92.34-2.57,6.37-1.9,13.42,1.94,20.38,2.84,5.14,7.24,8.81,50.23,41.81,49.69,38.14,50.55,38.67,60.52,37.78,18.88-1.69,29-24.3,17.55-39.26-1.24-1.63-43.22-34.73-64-51.06a15.76,15.76,0,0,1-3.41-21.06l22.82-34.61c13.56-22.74,14.8-26.88,11.08-37-5.28-14.38-19.59-20.32-33.52-13.9Z"/><path id="head" class="cls-3" d="M991,307c-7.08,3.52-9.37,5.17-12.26,8.8-13.69,17.18-12.3,42.81,3.08,57.08,8.85,8.22,22.24,11.81,33.36,8.94,5.87-1.51,13.09-6.16,18.26-11.76,3-3.21,5-7.07,7.18-13.32,3.9-11.41,3.6-19.47-1.11-30.82-3-7.34-3.89-8.5-10-13.85-7.5-6.56-13.82-9-23.58-9.26-5.41-.12-7.33.42-14.91,4.19Z"/></g></g></g><path class="cls-3" d="M0,1080,742.38,662.41"/><path class="cls-3" d="M742.38,417.59,0,0"/><path class="cls-3" d="M1920,0,1177.62,417.59"/><path class="cls-3" d="M1177.62,662.41,1920,1080"/></svg>